<!-- Generator: Adobe Illustrator 19.1.0, SVG Export Plug-In  -->
<svg version="1.1"
	 xmlns="http://www.w3.org/2000/svg" xmlns:xlink="http://www.w3.org/1999/xlink" xmlns:a="http://ns.adobe.com/AdobeSVGViewerExtensions/3.0/"
	 x="0px" y="0px" width="270px" height="344px" viewBox="0 0 270 344" style="enable-background:new 0 0 270 344;"
	 xml:space="preserve">
<style type="text/css">
	.st0{fill:#1A1A1A;}
</style>
<defs>
</defs>
<path class="st0" d="M56.4,344c-2.7,0-5.5-0.1-8.3-0.3c-25.3-1.9-45.4-21.1-47.8-45.5c-1.4-14.6,2.2-27.2,10.7-37.4
	c19.5-23.2,59.4-28.7,75.7-30c5.8-0.5,10.2-5.3,10.3-11.2l3-185.9V0c33,57,77.1,87.1,108.9,102.4c28.2,13.6,51.5,18.2,61.2,19.6
	c-8.4,12.2-19.2,18.1-33.1,18.1c-36.8,0-84.1-43.4-102.7-62c-2.2-2.2-5-3.4-8.1-3.4c-5.6,0-11.4,4.3-11.4,11.4
	c-0.1,20.1,1.5,62.4,9.3,149.3c3.7,41.6-2.6,71.8-18.9,89.5C93.7,337.6,77.3,344,56.4,344C56.4,344,56.4,344,56.4,344z"/>
</svg>
